<?xml version="1.0" standalone="no"?><!DOCTYPE svg PUBLIC "-//W3C//DTD SVG 1.1//EN" "http://www.w3.org/Graphics/SVG/1.1/DTD/svg11.dtd"><svg t="1697630848971" class="icon" viewBox="0 0 10541 1024" version="1.1" xmlns="http://www.w3.org/2000/svg" p-id="4085" xmlns:xlink="http://www.w3.org/1999/xlink" width="2058.7890625" height="200"><path d="M393.924872 411.381812c-76.449356-36.05761-142.484745-67.118923-142.484745-127.25507 0-49.300805 31.843866-99.083181 102.815355-99.083182 51.52807 0 112.627359 17.155958 192.206925 53.99612l79.278584-158.918347C533.700782 26.185409 439.373112 0 337.400506 0 139.535124 0 21.429898 106.728117 21.429898 285.390865s138.150608 247.587561 249.152666 303.088589c80.542708 40.211157 150.069484 75.004644 150.069485 140.498266 0 56.46417-50.083358 94.387867-124.546235 94.387867-59.714773 0-132.612545-21.971665-216.767033-65.493622L0 928.107225c106.366939 60.617718 203.523838 87.645876 314.586091 87.645876 205.510317 0 328.250661-114.373053 328.250662-305.978014 0-181.190994-138.030216-246.203045-248.911881-298.393275z m663.002528-297.068956c-86.020575 0-215.442714 0-290.08618 2.528247v879.709364h218.271942v-268.355299h66.336371c99.323967 0 330.41773-32.144847 330.417729-330.237141 0-182.936688-115.396391-283.645171-324.939862-283.645171z m-6.862383 448.763741c-27.449533 0-45.568632 0-62.182823-1.384515l-2.829228-0.240786V280.815943l2.829228-0.180589c19.323026-1.32432 44.605491-1.32432 64.831462-1.32432 101.009464 0 121.295632 58.330257 121.295632 152.417142 0.120393 90.896479-38.164482 131.348422-123.944271 131.348421z m965.188172 93.003351l2.167068-1.625301c72.777379-58.149668 112.868144-148.143201 112.868145-253.36641 0-211.469755-180.10746-286.775381-348.717419-286.775381-86.020575 0-215.50291 0-290.025983 2.528247v879.709364h218.271942v-268.355299h66.336371c13.243196 0 25.764035-0.722356 37.261536-1.444712l1.805891-0.180589 0.963141 1.504908c36.238199 58.089472 82.408794 151.634589 97.277291 268.475692h238.798895c-20.225971-134.478631-93.424725-269.49903-135.501969-338.243254l-1.504909-2.227265z m-240.544589-93.003351c-27.449533 0-45.508436 0-62.122626-1.264123l-2.829228-0.240785V280.936335l2.829228-0.180589c19.323026-1.384516 44.605491-1.384516 64.831462-1.384516 101.009464 0 121.295632 58.390453 121.295632 152.537535 0 90.71589-38.224678 131.167833-124.004468 131.167832z m515.581683 433.47387l218.031156 0.120393V115.697372h-218.031156v880.853095z m909.867732-304.473105L2938.785492 115.637176h-238.618306v880.853095h192.086532V440.817824l271.064135 555.672447h230.010229V115.637176h-193.170067v576.440186z m718.62395-26.967962h90.836282v179.987067l-2.046676 0.722356c-21.911469 7.885721-74.222092 12.039269-96.013168 12.039269-115.275998 0-160.242667-85.418611-160.242666-304.713891 0-192.628299 66.336371-286.29381 202.801481-286.29381 45.568632 0 112.085592 20.40656 182.936688 56.102992l59.11281-146.879078c-79.218388-49.962965-182.334725-79.760155-276.42161-79.760155-132.311563 0-227.662571 37.261537-291.591088 113.951678-63.38675 76.148375-94.267474 189.136911-94.267474 345.466816 0 341.373464 99.022985 468.267356 365.15102 468.267356 84.756452 0 212.3727-22.031862 307.422726-71.212274V514.919523H3918.781965v150.189877z m645.425195-33.830345h282.983011V460.983599h-282.983011V287.317148h309.048028V115.637176h-517.869144v725.064958c0 0.782552-1.264123 69.707366 44.244313 116.901299 28.412674 29.556405 68.98501 44.605491 120.51308 44.906472 158.797954 0.902945 332.705191-4.9361 357.205102-5.839045v-172.04115h-313.201575v-193.350655h0.060196z m998.898125 27.088354l-1.444712-2.287461 2.167068-1.625301c72.777379-58.149668 112.868144-148.143201 112.868144-253.36641 0-211.469755-180.10746-286.775381-348.657222-286.775381-86.020575 0-215.50291 0-290.025983 2.528247v879.709364h218.271942v-268.355299h66.33637c13.243196 0 25.703839-0.722356 37.261537-1.444712l1.80589-0.180589 0.963142 1.504908c36.238199 58.089472 82.408794 151.634589 97.277291 268.475692h238.798895c-20.346364-134.418435-93.545118-269.438834-135.622362-338.183058z m-241.989301-95.290812c-27.449533 0-45.508436 0-62.122627-1.264123l-2.829228-0.240785V280.936335l2.829228-0.180589c19.323026-1.384516 44.605491-1.384516 64.831462-1.384516 101.009464 0 121.355829 58.390453 121.355829 152.537535 0 90.71589-38.224678 131.167833-124.064664 131.167832z" fill="#1A2D59" p-id="4086"></path><path d="M6570.611487 697.976603L6249.584387 9.029452h-254.630534v987.521015h200.333432l0.060196-681.482805 318.55905 681.482805h258.121921V9.029452h-201.416965v688.947151z m1099.245429-402.773734h196.661454v701.347598h227.421786V295.202869h167.586621V115.57698h-591.669861v179.625889z m1166.966316 407.047675c0 90.174123-5.116689 145.37417-105.52419 145.374169-96.253953 0-112.506966-45.26765-112.506966-146.698489V115.637176h-225.977074v597.147728c0 210.145435 101.430839 303.871142 328.852625 303.871142 232.77926 0 341.192875-106.607724 341.192875-335.534419V115.637176H8836.823232v586.613368z m1384.335312 122.379166v-193.410852h282.922815V460.923403h-282.922815V287.256951h309.048028V115.637176h-517.808947v725.064958c0 0.782552-1.264123 69.707366 44.244313 116.901299 28.412674 29.556405 68.98501 44.605491 120.513079 44.906472a9793.343131 9793.343131 0 0 0 357.205103-5.839045v-172.04115h-313.201576z m-3110.34507-708.992534l-213.335842 880.913291h222.666275l31.362295-139.896302h244.096173l31.362295 139.896302h234.825936l-210.56681-880.913291h-340.410322z m66.396567 574.574099l90.715889-383.08953h9.089648l92.822762 383.08953h-192.628299z m2570.745047-34.131327l2.106872-1.625301c72.717183-58.149668 112.868144-148.143201 112.868144-253.36641 0-211.469755-180.10746-286.775381-348.717418-286.775381-86.020575 0-215.50291 0-290.025983 2.528247v879.709364h218.271941v-268.355299h66.336371c13.243196 0 25.703839-0.722356 37.261537-1.444712l1.80589-0.180589 0.963141 1.504908c36.238199 58.089472 82.408794 151.634589 97.337488 268.475692h238.798895c-20.225971-134.478631-93.424725-269.49903-135.50197-338.243254l-1.504908-2.227265z m-240.484393-93.003351c-27.449533 0-45.508436 0-62.182822-1.264123l-2.829229-0.240785V280.936335l2.829229-0.180589c19.323026-1.384516 44.545294-1.384516 64.831462-1.384516 101.009464 0 121.295632 58.390453 121.295632 152.537535 0.060196 90.71589-38.164482 131.167833-123.944272 131.167832z" fill="#DB1830" p-id="4087"></path></svg>